<svg width="127" height="64" viewBox="0 0 127 64" fill="none" xmlns="http://www.w3.org/2000/svg">
<path d="M105.095 22.0459L123.312 26.4918L111.331 32.2754" stroke="#D2D1D4" stroke-width="2.2" stroke-miterlimit="10"/>
<path d="M58.1377 52.5967C58.4721 52.7934 58.8262 52.9704 59.1803 53.1475C60.4983 53.7573 61.9344 54.0918 63.3902 54.1114" stroke="#D2D1D4" stroke-width="2.2" stroke-miterlimit="10"/>
<path d="M71.4165 51.5146L69.1738 52.5966" stroke="#D2D1D4" stroke-width="2.2" stroke-miterlimit="10"/>
<path d="M16.5311 32.5312L4 26.4919L23.082 21.8296" stroke="#D2D1D4" stroke-width="2.2" stroke-miterlimit="10"/>
<path d="M69.1738 52.5967C69.0361 52.6754 68.8984 52.7541 68.7411 52.8327C67.2656 53.6196 65.6132 54.0721 63.9214 54.0918" stroke="#D2D1D4" stroke-width="2.2" stroke-miterlimit="10"/>
<path d="M58.1378 52.5966L56.4854 51.79" stroke="#D2D1D4" stroke-width="2.2" stroke-miterlimit="10"/>
<path d="M71.8688 54.1312C71.8688 58.4787 68.3475 62 64 62C59.6524 62 56.1311 58.4787 56.1311 54.1312C56.1311 53.3246 56.2491 52.5377 56.4852 51.7902C56.5245 51.6722 56.5639 51.5738 56.5836 51.4558C57.0754 51.8886 57.5868 52.2623 58.1377 52.5771L58.9836 52.9902C59.0426 53.0295 59.1016 53.0492 59.1803 53.0886C60.5377 53.7181 61.9737 54.0525 63.3901 54.0918C63.4688 54.0918 63.5672 54.0918 63.6459 54.0918C63.7245 54.0918 63.8229 54.0918 63.9016 54.0918C65.377 54.0525 66.8918 53.6984 68.3082 52.9902L68.7213 52.7935L69.1541 52.5771C69.9016 52.1443 70.5901 51.5935 71.2 50.9836C71.2786 51.141 71.3377 51.3181 71.3967 51.4951C71.7114 52.3213 71.8688 53.2066 71.8688 54.1312Z" stroke="#D2D1D4" stroke-width="2.2" stroke-miterlimit="10"/>
<path d="M71.8688 54.1312C71.8688 58.4787 68.3475 62 64 62C59.6524 62 56.1311 58.4787 56.1311 54.1312C56.1311 53.3246 56.2491 52.5377 56.4852 51.7902C56.5245 51.6722 56.5639 51.5738 56.5836 51.4558C57.0754 51.8886 57.5868 52.2623 58.1377 52.5771L58.9836 52.9902C59.0426 53.0295 59.1016 53.0492 59.1803 53.0886C60.5377 53.7181 61.9737 54.0525 63.3901 54.0918C63.4688 54.0918 63.5672 54.0918 63.6459 54.0918C63.7245 54.0918 63.8229 54.0918 63.9016 54.0918C65.377 54.0525 66.8918 53.6984 68.3082 52.9902L68.7213 52.7935L69.1541 52.5771C69.9016 52.1443 70.5901 51.5935 71.2 50.9836C71.2786 51.141 71.3377 51.3181 71.3967 51.4951C71.7114 52.3213 71.8688 53.2066 71.8688 54.1312Z" stroke="#D2D1D4" stroke-width="2.2" stroke-miterlimit="10"/>
<path d="M71.8688 54.1312C71.8688 58.4787 68.3475 62 64 62C59.6524 62 56.1311 58.4787 56.1311 54.1312C56.1311 53.3246 56.2491 52.5377 56.4852 51.7902C56.5245 51.6722 56.5639 51.5738 56.5836 51.4558C57.0754 51.8886 57.5868 52.2623 58.1377 52.5771L58.9836 52.9902C59.0426 53.0295 59.1016 53.0492 59.1803 53.0886C60.5377 53.7181 61.9737 54.0525 63.3901 54.0918C63.4688 54.0918 63.5672 54.0918 63.6459 54.0918C63.7245 54.0918 63.8229 54.0918 63.9016 54.0918C65.377 54.0525 66.8918 53.6984 68.3082 52.9902L68.7213 52.7935L69.1541 52.5771C69.9016 52.1443 70.5901 51.5935 71.2 50.9836C71.2786 51.141 71.3377 51.3181 71.3967 51.4951C71.7114 52.3213 71.8688 53.2066 71.8688 54.1312Z" stroke="#D2D1D4" stroke-width="2.2" stroke-miterlimit="10"/>
<path d="M71.8688 54.1312C71.8688 58.4787 68.3475 62 64 62C59.6524 62 56.1311 58.4787 56.1311 54.1312C56.1311 53.3246 56.2491 52.5377 56.4852 51.7902C56.5245 51.6722 56.5639 51.5738 56.5836 51.4558C57.0754 51.8886 57.5868 52.2623 58.1377 52.5771L58.9836 52.9902C59.0426 53.0295 59.1016 53.0492 59.1803 53.0886C60.5377 53.7181 61.9737 54.0525 63.3901 54.0918C63.4688 54.0918 63.5672 54.0918 63.6459 54.0918C63.7245 54.0918 63.8229 54.0918 63.9016 54.0918C65.377 54.0525 66.8918 53.6984 68.3082 52.9902L68.7213 52.7935L69.1541 52.5771C69.9016 52.1443 70.5901 51.5935 71.2 50.9836C71.2786 51.141 71.3377 51.3181 71.3967 51.4951C71.7114 52.3213 71.8688 53.2066 71.8688 54.1312Z" stroke="#D2D1D4" stroke-width="2.2" stroke-miterlimit="10"/>
<path d="M71.8688 54.1312C71.8688 58.4787 68.3475 62 64 62C59.6524 62 56.1311 58.4787 56.1311 54.1312C56.1311 53.3246 56.2491 52.5377 56.4852 51.7902C56.5245 51.6722 56.5639 51.5738 56.5836 51.4558C57.0754 51.8886 57.5868 52.2623 58.1377 52.5771L58.9836 52.9902C59.0426 53.0295 59.1016 53.0492 59.1803 53.0886C60.5377 53.7181 61.9737 54.0525 63.3901 54.0918C63.4688 54.0918 63.5672 54.0918 63.6459 54.0918C63.7245 54.0918 63.8229 54.0918 63.9016 54.0918C65.377 54.0525 66.8918 53.6984 68.3082 52.9902L68.7213 52.7935L69.1541 52.5771C69.9016 52.1443 70.5901 51.5935 71.2 50.9836C71.2786 51.141 71.3377 51.3181 71.3967 51.4951C71.7114 52.3213 71.8688 53.2066 71.8688 54.1312Z" stroke="#D2D1D4" stroke-width="2.2" stroke-miterlimit="10"/>
<path d="M71.8688 54.1312C71.8688 58.4787 68.3475 62 64 62C59.6524 62 56.1311 58.4787 56.1311 54.1312C56.1311 53.3246 56.2491 52.5377 56.4852 51.7902C56.5245 51.6722 56.5639 51.5738 56.5836 51.4558C57.0754 51.8886 57.5868 52.2623 58.1377 52.5771L58.9836 52.9902C59.0426 53.0295 59.1016 53.0492 59.1803 53.0886C60.5377 53.7181 61.9737 54.0525 63.3901 54.0918C63.4688 54.0918 63.5672 54.0918 63.6459 54.0918C63.7245 54.0918 63.8229 54.0918 63.9016 54.0918C65.377 54.0525 66.8918 53.6984 68.3082 52.9902L68.7213 52.7935L69.1541 52.5771C69.9016 52.1443 70.5901 51.5935 71.2 50.9836C71.2786 51.141 71.3377 51.3181 71.3967 51.4951C71.7114 52.3213 71.8688 53.2066 71.8688 54.1312Z" stroke="#D2D1D4" stroke-width="2.2" stroke-miterlimit="10"/>
<path d="M71.8688 54.1312C71.8688 58.4787 68.3475 62 64 62C59.6524 62 56.1311 58.4787 56.1311 54.1312C56.1311 53.3246 56.2491 52.5377 56.4852 51.7902C56.5245 51.6722 56.5639 51.5738 56.5836 51.4558C57.0754 51.8886 57.5868 52.2623 58.1377 52.5771L58.9836 52.9902C59.0426 53.0295 59.1016 53.0492 59.1803 53.0886C60.5377 53.7181 61.9737 54.0525 63.3901 54.0918C63.4688 54.0918 63.5672 54.0918 63.6459 54.0918C63.7245 54.0918 63.8229 54.0918 63.9016 54.0918C65.377 54.0525 66.8918 53.6984 68.3082 52.9902L68.7213 52.7935L69.1541 52.5771C69.9016 52.1443 70.5901 51.5935 71.2 50.9836C71.2786 51.141 71.3377 51.3181 71.3967 51.4951C71.7114 52.3213 71.8688 53.2066 71.8688 54.1312Z" stroke="#D2D1D4" stroke-width="2.2" stroke-miterlimit="10"/>
<path d="M71.8688 54.1312C71.8688 58.4787 68.3475 62 64 62C59.6524 62 56.1311 58.4787 56.1311 54.1312C56.1311 53.3246 56.2491 52.5377 56.4852 51.7902C56.5245 51.6722 56.5639 51.5738 56.5836 51.4558C57.0754 51.8886 57.5868 52.2623 58.1377 52.5771L58.9836 52.9902C59.0426 53.0295 59.1016 53.0492 59.1803 53.0886C60.5377 53.7181 61.9737 54.0525 63.3901 54.0918C63.4688 54.0918 63.5672 54.0918 63.6459 54.0918C63.7245 54.0918 63.8229 54.0918 63.9016 54.0918C65.377 54.0525 66.8918 53.6984 68.3082 52.9902L68.7213 52.7935L69.1541 52.5771C69.9016 52.1443 70.5901 51.5935 71.2 50.9836C71.2786 51.141 71.3377 51.3181 71.3967 51.4951C71.7114 52.3213 71.8688 53.2066 71.8688 54.1312Z" stroke="#D2D1D4" stroke-width="2.2" stroke-miterlimit="10"/>
<path d="M111.331 32.2557L108.675 33.5344L106.02 34.8131C98.7017 18.9377 82.6493 7.90164 64.0001 7.90164C45.2525 7.90164 29.1214 19.0557 21.8624 35.1082L19.2066 33.8295L16.5509 32.5508C18.3017 28.7148 20.505 25.1148 23.0821 21.8492C32.623 9.75082 47.3968 2 64.0001 2C80.6821 2 95.5542 9.84918 105.095 22.0459C107.535 25.1738 109.639 28.6164 111.331 32.2557Z" stroke="#D2D1D4" stroke-width="2.2" stroke-miterlimit="10"/>
<path d="M71.8688 54.1312C71.8688 58.4787 68.3475 62 64 62C59.6524 62 56.1311 58.4787 56.1311 54.1312C56.1311 53.3246 56.2491 52.5377 56.4852 51.7902C56.5245 51.6722 56.5639 51.5738 56.5836 51.4558C57.0754 51.8886 57.5868 52.2623 58.1377 52.5771L58.9836 52.9902C59.0426 53.0295 59.1016 53.0492 59.1803 53.0886C60.5377 53.7181 61.9737 54.0525 63.3901 54.0918C63.4688 54.0918 63.5672 54.0918 63.6459 54.0918C63.7245 54.0918 63.8229 54.0918 63.9016 54.0918C65.377 54.0525 66.8918 53.6984 68.3082 52.9902L68.7213 52.7935L69.1541 52.5771C69.9016 52.1443 70.5901 51.5935 71.2 50.9836C71.2786 51.141 71.3377 51.3181 71.3967 51.4951C71.7114 52.3213 71.8688 53.2066 71.8688 54.1312Z" stroke="#D2D1D4" stroke-width="2.2" stroke-miterlimit="10"/>
<path d="M90.0656 42.5245L87.4099 43.8032L84.7541 45.0819C83.3771 41.954 81.3312 39.1802 78.7738 36.9769L77.4164 39.731L76.0394 42.5245C72.9902 39.3769 68.741 37.4097 64 37.4097C59.0426 37.4097 54.5771 39.5737 51.5082 43.0163L50.1115 40.1835L48.7541 37.4097C46.3541 39.613 44.4066 42.3081 43.1279 45.3573L40.4721 44.0786L37.8164 42.7999C42.2033 32.6884 52.2754 25.6064 64 25.6064C75.6262 25.6064 85.6197 32.5507 90.0656 42.5245Z" stroke="#D2D1D4" stroke-width="2.2" stroke-miterlimit="10"/>
<path d="M71.8688 54.1312C71.8688 58.4787 68.3475 62 64 62C59.6524 62 56.1311 58.4787 56.1311 54.1312C56.1311 53.3246 56.2491 52.5377 56.4852 51.7902C56.5245 51.6722 56.5639 51.5738 56.5836 51.4558C57.0754 51.8886 57.5868 52.2623 58.1377 52.5771L58.9836 52.9902C59.0426 53.0295 59.1016 53.0492 59.1803 53.0886C60.5377 53.7181 61.9737 54.0525 63.3901 54.0918C63.4688 54.0918 63.5672 54.0918 63.6459 54.0918C63.7245 54.0918 63.8229 54.0918 63.9016 54.0918C65.377 54.0525 66.8918 53.6984 68.3082 52.9902L68.7213 52.7935L69.1541 52.5771C69.9016 52.1443 70.5901 51.5935 71.2 50.9836C71.2786 51.141 71.3377 51.3181 71.3967 51.4951C71.7114 52.3213 71.8688 53.2066 71.8688 54.1312Z" stroke="#D2D1D4" stroke-width="2.2" stroke-miterlimit="10"/>
<path d="M71.8688 54.1312C71.8688 58.4787 68.3475 62 64 62C59.6524 62 56.1311 58.4787 56.1311 54.1312C56.1311 53.3246 56.2491 52.5377 56.4852 51.7902C56.5245 51.6722 56.5639 51.5738 56.5836 51.4558C57.0754 51.8886 57.5868 52.2623 58.1377 52.5771L58.9836 52.9902C59.0426 53.0295 59.1016 53.0492 59.1803 53.0886C60.5377 53.7181 61.9737 54.0525 63.3901 54.0918C63.4688 54.0918 63.5672 54.0918 63.6459 54.0918C63.7245 54.0918 63.8229 54.0918 63.9016 54.0918C65.377 54.0525 66.8918 53.6984 68.3082 52.9902L68.7213 52.7935L69.1541 52.5771C69.9016 52.1443 70.5901 51.5935 71.2 50.9836C71.2786 51.141 71.3377 51.3181 71.3967 51.4951C71.7114 52.3213 71.8688 53.2066 71.8688 54.1312Z" stroke="#D2D1D4" stroke-width="2.2" stroke-miterlimit="10"/>
<path d="M84.7345 45.082L82.0787 46.3607L79.423 47.6394L76.7673 48.9181L74.0919 50.1968L71.4164 51.4754C71.3574 51.2984 71.2984 51.141 71.2197 50.964C71.9869 50.2164 72.6361 49.3312 73.1476 48.3279C73.1869 48.2492 73.2263 48.1705 73.2656 48.1115L74.623 45.3377L76.0197 42.4853L77.3968 39.6918L78.7542 36.9377C81.3115 39.1804 83.3771 41.9541 84.7345 45.082Z" stroke="#D2D1D4" stroke-width="2.2" stroke-miterlimit="10"/>
<path d="M71.8688 54.1312C71.8688 58.4787 68.3475 62 64 62C59.6524 62 56.1311 58.4787 56.1311 54.1312C56.1311 53.3246 56.2491 52.5377 56.4852 51.7902C56.5245 51.6722 56.5639 51.5738 56.5836 51.4558C57.0754 51.8886 57.5868 52.2623 58.1377 52.5771L58.9836 52.9902C59.0426 53.0295 59.1016 53.0492 59.1803 53.0886C60.5377 53.7181 61.9737 54.0525 63.3901 54.0918C63.4688 54.0918 63.5672 54.0918 63.6459 54.0918C63.7245 54.0918 63.8229 54.0918 63.9016 54.0918C65.377 54.0525 66.8918 53.6984 68.3082 52.9902L68.7213 52.7935L69.1541 52.5771C69.9016 52.1443 70.5901 51.5935 71.2 50.9836C71.2786 51.141 71.3377 51.3181 71.3967 51.4951C71.7114 52.3213 71.8688 53.2066 71.8688 54.1312Z" stroke="#D2D1D4" stroke-width="2.2" stroke-miterlimit="10"/>
<path d="M71.8688 54.1312C71.8688 58.4787 68.3475 62 64 62C59.6524 62 56.1311 58.4787 56.1311 54.1312C56.1311 53.3246 56.2491 52.5377 56.4852 51.7902C56.5245 51.6722 56.5639 51.5738 56.5836 51.4558C57.0754 51.8886 57.5868 52.2623 58.1377 52.5771L58.9836 52.9902C59.0426 53.0295 59.1016 53.0492 59.1803 53.0886C60.5377 53.7181 61.9737 54.0525 63.3901 54.0918C63.4688 54.0918 63.5672 54.0918 63.6459 54.0918C63.7245 54.0918 63.8229 54.0918 63.9016 54.0918C65.377 54.0525 66.8918 53.6984 68.3082 52.9902L68.7213 52.7935L69.1541 52.5771C69.9016 52.1443 70.5901 51.5935 71.2 50.9836C71.2786 51.141 71.3377 51.3181 71.3967 51.4951C71.7114 52.3213 71.8688 53.2066 71.8688 54.1312Z" stroke="#D2D1D4" stroke-width="2.2" stroke-miterlimit="10"/>
<path d="M71.8688 54.1312C71.8688 58.4787 68.3475 62 64 62C59.6524 62 56.1311 58.4787 56.1311 54.1312C56.1311 53.3246 56.2491 52.5377 56.4852 51.7902C56.5245 51.6722 56.5639 51.5738 56.5836 51.4558C57.0754 51.8886 57.5868 52.2623 58.1377 52.5771L58.9836 52.9902C59.0426 53.0295 59.1016 53.0492 59.1803 53.0886C60.5377 53.7181 61.9737 54.0525 63.3901 54.0918C63.4688 54.0918 63.5672 54.0918 63.6459 54.0918C63.7245 54.0918 63.8229 54.0918 63.9016 54.0918C65.377 54.0525 66.8918 53.6984 68.3082 52.9902L68.7213 52.7935L69.1541 52.5771C69.9016 52.1443 70.5901 51.5935 71.2 50.9836C71.2786 51.141 71.3377 51.3181 71.3967 51.4951C71.7114 52.3213 71.8688 53.2066 71.8688 54.1312Z" stroke="#D2D1D4" stroke-width="2.2" stroke-miterlimit="10"/>
<path d="M71.8688 54.1312C71.8688 58.4787 68.3475 62 64 62C59.6524 62 56.1311 58.4787 56.1311 54.1312C56.1311 53.3246 56.2491 52.5377 56.4852 51.7902C56.5245 51.6722 56.5639 51.5738 56.5836 51.4558C57.0754 51.8886 57.5868 52.2623 58.1377 52.5771L58.9836 52.9902C59.0426 53.0295 59.1016 53.0492 59.1803 53.0886C60.5377 53.7181 61.9737 54.0525 63.3901 54.0918C63.4688 54.0918 63.5672 54.0918 63.6459 54.0918C63.7245 54.0918 63.8229 54.0918 63.9016 54.0918C65.377 54.0525 66.8918 53.6984 68.3082 52.9902L68.7213 52.7935L69.1541 52.5771C69.9016 52.1443 70.5901 51.5935 71.2 50.9836C71.2786 51.141 71.3377 51.3181 71.3967 51.4951C71.7114 52.3213 71.8688 53.2066 71.8688 54.1312Z" stroke="#D2D1D4" stroke-width="2.2" stroke-miterlimit="10"/>
<path d="M71.8688 54.1312C71.8688 58.4787 68.3475 62 64 62C59.6524 62 56.1311 58.4787 56.1311 54.1312C56.1311 53.3246 56.2491 52.5377 56.4852 51.7902C56.5245 51.6722 56.5639 51.5738 56.5836 51.4558C57.0754 51.8886 57.5868 52.2623 58.1377 52.5771L58.9836 52.9902C59.0426 53.0295 59.1016 53.0492 59.1803 53.0886C60.5377 53.7181 61.9737 54.0525 63.3901 54.0918C63.4688 54.0918 63.5672 54.0918 63.6459 54.0918C63.7245 54.0918 63.8229 54.0918 63.9016 54.0918C65.377 54.0525 66.8918 53.6984 68.3082 52.9902L68.7213 52.7935L69.1541 52.5771C69.9016 52.1443 70.5901 51.5935 71.2 50.9836C71.2786 51.141 71.3377 51.3181 71.3967 51.4951C71.7114 52.3213 71.8688 53.2066 71.8688 54.1312Z" stroke="#D2D1D4" stroke-width="2.2" stroke-miterlimit="10"/>
<path d="M71.8688 54.1312C71.8688 58.4787 68.3475 62 64 62C59.6524 62 56.1311 58.4787 56.1311 54.1312C56.1311 53.3246 56.2491 52.5377 56.4852 51.7902C56.5245 51.6722 56.5639 51.5738 56.5836 51.4558C57.0754 51.8886 57.5868 52.2623 58.1377 52.5771L58.9836 52.9902C59.0426 53.0295 59.1016 53.0492 59.1803 53.0886C60.5377 53.7181 61.9737 54.0525 63.3901 54.0918C63.4688 54.0918 63.5672 54.0918 63.6459 54.0918C63.7245 54.0918 63.8229 54.0918 63.9016 54.0918C65.377 54.0525 66.8918 53.6984 68.3082 52.9902L68.7213 52.7935L69.1541 52.5771C69.9016 52.1443 70.5901 51.5935 71.2 50.9836C71.2786 51.141 71.3377 51.3181 71.3967 51.4951C71.7114 52.3213 71.8688 53.2066 71.8688 54.1312Z" stroke="#D2D1D4" stroke-width="2.2" stroke-miterlimit="10"/>
<path d="M56.5836 51.4754C56.5443 51.5738 56.5049 51.6918 56.4853 51.8099L53.8099 50.5115L51.1344 49.2328L48.4787 47.9541L45.823 46.6754L43.1672 45.3968C44.4459 42.3476 46.3738 39.6328 48.7935 37.4492L50.1508 40.223L51.5476 43.0558L52.9836 45.9672L54.0853 48.1902C54.223 48.4656 54.3803 48.741 54.5377 49.0164C55.0689 49.9213 55.7771 50.7673 56.5836 51.4754Z" stroke="#D2D1D4" stroke-width="2.2" stroke-miterlimit="10"/>
<path d="M76.0393 42.5247L74.6426 45.3771L73.2852 48.1509C73.2459 48.2296 73.2065 48.3083 73.1672 48.3673C72.6557 49.3706 71.9868 50.2558 71.2393 51.0034C70.6098 51.6329 69.9213 52.164 69.1934 52.5968L68.7606 52.8132L68.3475 53.0099C66.9311 53.6984 65.436 54.0722 63.941 54.1116C63.8623 54.1116 63.7639 54.1116 63.6852 54.1116C63.6065 54.1116 63.5082 54.1116 63.4295 54.1116C62.0131 54.0722 60.577 53.7378 59.2196 53.1083C59.1606 53.0689 59.0819 53.0493 59.0229 53.0099L58.177 52.5968C57.6262 52.2624 57.1147 51.8886 56.6229 51.4755C55.8164 50.7673 55.1082 49.9214 54.518 48.9771C54.3606 48.7214 54.2032 48.446 54.0655 48.1509L52.9639 45.9279L51.5278 43.0165C54.577 39.5738 59.0426 37.4099 64 37.4099C68.7213 37.4099 72.9901 39.3771 76.0393 42.5247Z" stroke="#D2D1D4" stroke-width="2.2" stroke-miterlimit="10"/>
<path d="M68.9181 54.131C68.9181 56.8458 66.7148 59.0491 64.0001 59.0491C61.2853 59.0491 59.082 56.8458 59.082 54.131C59.082 53.7966 59.1214 53.4622 59.1804 53.1474C59.1804 53.1277 59.1804 53.1277 59.1804 53.1081C60.5378 53.7376 61.9738 54.072 63.3902 54.1114C63.4689 54.1114 63.5673 54.1114 63.646 54.1114C63.7247 54.1114 63.823 54.1114 63.9017 54.1114C65.3771 54.072 66.8919 53.7179 68.3083 53.0097L68.7214 52.813C68.7214 52.813 68.7214 52.8327 68.7214 52.8523C68.8591 53.2458 68.9181 53.6786 68.9181 54.131Z" stroke="#D2D1D4" stroke-width="2.2" stroke-miterlimit="10"/>
<path d="M64 25.6064V30.4851V37.3901V37.4097" stroke="#D2D1D4" stroke-width="2.2" stroke-miterlimit="10"/>
<path d="M64 7.90164V2" stroke="#D2D1D4" stroke-width="2.2" stroke-miterlimit="10"/>
<path d="M30.6753 30.6427C30.7344 30.7017 30.7147 30.7607 30.7147 30.8394C31.7376 32.059 32.6032 33.3377 33.1934 34.6361C33.7442 34.3607 34.4524 34.0066 34.9639 33.7902L35.3573 34.6754C34.8065 34.8722 34.0786 35.2066 33.5278 35.482C34.236 37.3312 34.5114 39.2394 34.2163 41.3246C33.9606 41.3049 33.5278 41.423 33.2917 41.5213C33.6065 39.5345 33.3704 37.6656 32.7212 35.8754C31.777 36.3672 30.8524 36.9377 30.0655 37.5082L29.7507 36.7213C30.5376 36.1312 31.4426 35.5607 32.3868 35.0295C31.9147 33.9476 31.1868 32.8459 30.4196 31.941L28.1573 35.423C28.8655 36.8394 29.3376 38.3541 29.495 39.6722C29.2786 39.7115 28.8655 39.8689 28.6294 39.9476C28.4721 37.882 27.4098 35.4623 26.0327 33.6722L26.9573 32.8853C27.036 33.0033 26.9966 33.141 26.8983 33.2787C27.1737 33.6722 27.4688 34.1246 27.7245 34.5771L29.9475 31.1541L29.9868 31.0361L30.6753 30.6427ZM27.9409 30.2295C28.6491 29.9935 29.6721 29.8164 30.3409 29.7967L30.3999 30.4066C29.7901 30.4263 28.6885 30.6033 28.0196 30.8197L27.9409 30.2295ZM28.4327 28.6361C29.1409 28.4 30.1835 28.1836 30.8327 28.1443L30.8721 28.7541C30.2622 28.7541 29.1803 28.9902 28.5114 29.2066L28.4327 28.6361Z" fill="#D2D1D4" stroke="#D2D1D4" stroke-miterlimit="10"/>
<path d="M40.5703 19.8821C40.5703 19.9608 40.531 20.0395 40.4523 20.1181C40.413 20.1378 40.3933 20.1575 40.3539 20.1772C40.1966 21.5542 39.8228 23.3247 39.4097 24.7608C39.508 24.7214 39.6851 24.7018 39.7244 24.6821C39.7441 24.7608 39.7048 24.8788 39.6064 24.9772L43.8162 30.269L43.0884 30.8395L39.0556 25.764C38.6031 27.3378 37.8753 29.2067 37.049 30.9378C36.8326 30.8591 36.4589 30.7608 36.2031 30.7214C37.9146 27.3378 39.1736 22.8919 39.39 19.8821H40.5703Z" fill="#D2D1D4" stroke="#D2D1D4" stroke-miterlimit="10"/>
<path d="M53.3573 15.4165L56.2098 23.2263L55.3639 23.5411L55.0885 22.7936L48.577 25.1739L48.8524 25.9411L48.0262 26.2362L45.1541 18.4067L53.3573 15.4165ZM54.7934 21.987L52.7868 16.5181L46.2754 18.8985L48.2819 24.3673L54.7934 21.987Z" fill="#D2D1D4" stroke="#D2D1D4" stroke-miterlimit="10"/>
<path d="M66.7737 14.9443C66.7344 15.023 66.6754 15.082 66.5967 15.141C65.4164 19.3508 63.4491 21.9476 60.1049 23.8164C59.9672 23.6 59.6918 23.3246 59.436 23.1476C62.6032 21.4558 64.5508 18.9574 65.495 15.4951L61.0491 15.6525C60.3606 16.8131 59.4754 17.8951 58.3934 18.8197C58.2163 18.6426 57.9213 18.4262 57.6655 18.2885C59.3377 16.9312 60.6754 14.9049 61.4426 12.623L62.6426 12.8984C62.6032 13.0164 62.4655 13.0754 62.2885 13.0754C62.0524 13.6459 61.7967 14.2754 61.5213 14.7869L65.9082 14.6295L66.0655 14.5508L66.7737 14.9443ZM65.1016 12.1115C65.7114 12.564 66.4393 13.3115 66.8131 13.8426L66.3606 14.2558C65.9672 13.6853 65.259 12.9771 64.6688 12.5246L65.1016 12.1115ZM66.9114 11.6787C67.5213 12.1312 68.2491 12.859 68.6229 13.4099L68.1705 13.823C67.777 13.2722 67.0885 12.564 66.4786 12.1115L66.9114 11.6787Z" fill="#D2D1D4" stroke="#D2D1D4" stroke-miterlimit="10"/>
<path d="M75.1344 15.9672C75.0754 16.0459 74.9574 16.0852 74.7607 16.0459C73.3836 18.7803 71.4557 21.5147 69.5082 22.8721C69.3508 22.636 69.0754 22.3803 68.8394 22.1836C70.6885 20.9639 72.6951 18.2295 73.9934 15.318L75.1344 15.9672ZM78.7738 25.6459C78.8525 23.3639 78.518 19.5278 77.9475 16.9114L78.8525 16.7737C79.4623 19.3114 79.8164 23.1475 79.7574 25.5672L78.7738 25.6459ZM81.7639 15.377C82.5115 15.6131 82.9246 16.4 82.6885 17.1475C82.4721 17.8754 81.6656 18.3082 80.918 18.0721C80.1705 17.836 79.7574 17.0492 79.9934 16.3016C80.2492 15.5344 81.0361 15.141 81.7639 15.377ZM82.2951 17.0295C82.4525 16.4787 82.1574 15.9278 81.6459 15.7705C81.1148 15.6131 80.5639 15.9082 80.4066 16.4393C80.2492 16.9508 80.5443 17.5213 81.0557 17.6787C81.5869 17.8557 82.1377 17.5213 82.2951 17.0295Z" fill="#D2D1D4" stroke="#D2D1D4" stroke-miterlimit="10"/>
<path d="M83.5542 22.0852L91.9935 28.3606L91.4624 29.0688L83.4165 23.0688C83.2788 23.1278 83.1017 23.0885 82.9443 23.0295L83.5542 22.0852Z" fill="#D2D1D4" stroke="#D2D1D4" stroke-miterlimit="10"/>
<path d="M102.459 37.1934C102.341 37.2328 102.223 37.1541 102.144 37.0164C97.7376 38.4524 94.3146 38.2951 90.6753 36.0131C90.754 35.8164 90.872 35.3836 90.9114 35.1278C94.4327 37.3901 97.6392 37.5672 102.124 36.0131L102.459 37.1934ZM97.2458 29.3442C96.754 30.2688 95.8097 31.5869 95.1802 32.236L94.472 31.7049C95.1015 31.0557 96.0261 29.777 96.5769 28.8328L97.2458 29.3442ZM100.098 32.2164C99.4097 33.0426 98.2884 34.1836 97.5212 34.7934L96.8917 34.1442C97.6589 33.5147 98.7605 32.4328 99.4491 31.5869L100.098 32.2164Z" fill="#D2D1D4" stroke="#D2D1D4" stroke-miterlimit="10"/>
</svg>
