<svg width="24" height="24" viewBox="0 0 24 24" fill="none" xmlns="http://www.w3.org/2000/svg">
<mask id="path-1-inside-1_77_976" fill="white">
<path fill-rule="evenodd" clip-rule="evenodd" d="M12 22.8C17.9646 22.8 22.8 17.9646 22.8 12C22.8 6.03539 17.9646 1.2 12 1.2C6.0354 1.2 1.2 6.03539 1.2 12C1.2 17.9646 6.0354 22.8 12 22.8ZM12 24C18.6276 24 24 18.6276 24 12C24 5.37239 18.6276 0 12 0C5.3724 0 0 5.37239 0 12C0 18.6276 5.3724 24 12 24Z"/>
</mask>
<path fill-rule="evenodd" clip-rule="evenodd" d="M12 22.8C17.9646 22.8 22.8 17.9646 22.8 12C22.8 6.03539 17.9646 1.2 12 1.2C6.0354 1.2 1.2 6.03539 1.2 12C1.2 17.9646 6.0354 22.8 12 22.8ZM12 24C18.6276 24 24 18.6276 24 12C24 5.37239 18.6276 0 12 0C5.3724 0 0 5.37239 0 12C0 18.6276 5.3724 24 12 24Z" fill="#D2D1D4"/>
<path d="M12 37.8C26.2488 37.8 37.8 26.2489 37.8 12H7.8C7.8 9.68026 9.68036 7.79996 12 7.79996V37.8ZM37.8 12C37.8 -2.24891 26.2488 -13.8 12 -13.8V16.2C9.68036 16.2 7.8 14.3197 7.8 12H37.8ZM12 -13.8C-2.24885 -13.8 -13.8 -2.24891 -13.8 12H16.2C16.2 14.3197 14.3196 16.2 12 16.2V-13.8ZM-13.8 12C-13.8 26.2489 -2.24884 37.8 12 37.8V7.79996C14.3196 7.79996 16.2 9.68027 16.2 12H-13.8ZM12 39C26.9118 39 39 26.9119 39 12H9C9 10.3433 10.3434 8.99995 12 8.99995V39ZM39 12C39 -2.91191 26.9118 -15 12 -15V15C10.3434 15 9 13.6567 9 12H39ZM12 -15C-2.91184 -15 -15 -2.91191 -15 12H15C15 13.6567 13.6566 15 12 15V-15ZM-15 12C-15 26.9119 -2.91184 39 12 39V8.99995C13.6566 8.99995 15 10.3433 15 12H-15Z" fill="#D2D1D4" mask="url(#path-1-inside-1_77_976)"/>
<path d="M11.845 21.4002C10.8068 21.3965 9.60131 20.9308 7.90282 19.5764C10.7847 19.3323 13.0918 19.3483 15.9694 19.5838C14.1566 20.941 12.8922 21.404 11.845 21.4002Z" fill="#D2D1D4" stroke="#D2D1D4" stroke-width="4"/>
<mask id="path-4-inside-2_77_976" fill="white">
<path fill-rule="evenodd" clip-rule="evenodd" d="M18.069 18.3738C13.4868 17.8998 10.527 17.8554 5.94535 18.3624C5.79454 18.3799 5.65551 18.4525 5.55487 18.5662C5.45424 18.6799 5.39908 18.8267 5.39995 18.9786C5.39995 19.1502 5.47135 19.3128 5.59195 19.4256C8.09275 21.7452 9.98755 22.7934 11.8398 22.8C13.6986 22.8066 15.6954 21.7668 18.4014 19.4088C18.4873 19.3322 18.5492 19.2324 18.5795 19.1214C18.6098 19.0103 18.6072 18.8929 18.5719 18.7833C18.5367 18.6738 18.4705 18.5768 18.3812 18.5042C18.2919 18.4316 18.1834 18.3865 18.069 18.3744V18.3738ZM5.81395 17.1696C10.4916 16.6518 13.5384 16.6986 18.1932 17.1804C18.5401 17.2166 18.869 17.3532 19.1396 17.5734C19.4101 17.7937 19.6106 18.0881 19.7164 18.4205C19.8222 18.7529 19.8288 19.109 19.7354 19.4451C19.642 19.7812 19.4525 20.0828 19.1904 20.313C16.4454 22.7058 14.1594 24.009 11.8362 24C9.50635 23.9916 7.32115 22.6662 4.77655 20.3052C4.59437 20.1355 4.44913 19.93 4.34992 19.7017C4.25071 19.4733 4.19966 19.2269 4.19995 18.978C4.19908 18.5306 4.36328 18.0987 4.66109 17.7649C4.95891 17.4311 5.36941 17.2189 5.81395 17.169V17.1696Z"/>
</mask>
<path fill-rule="evenodd" clip-rule="evenodd" d="M18.069 18.3738C13.4868 17.8998 10.527 17.8554 5.94535 18.3624C5.79454 18.3799 5.65551 18.4525 5.55487 18.5662C5.45424 18.6799 5.39908 18.8267 5.39995 18.9786C5.39995 19.1502 5.47135 19.3128 5.59195 19.4256C8.09275 21.7452 9.98755 22.7934 11.8398 22.8C13.6986 22.8066 15.6954 21.7668 18.4014 19.4088C18.4873 19.3322 18.5492 19.2324 18.5795 19.1214C18.6098 19.0103 18.6072 18.8929 18.5719 18.7833C18.5367 18.6738 18.4705 18.5768 18.3812 18.5042C18.2919 18.4316 18.1834 18.3865 18.069 18.3744V18.3738ZM5.81395 17.1696C10.4916 16.6518 13.5384 16.6986 18.1932 17.1804C18.5401 17.2166 18.869 17.3532 19.1396 17.5734C19.4101 17.7937 19.6106 18.0881 19.7164 18.4205C19.8222 18.7529 19.8288 19.109 19.7354 19.4451C19.642 19.7812 19.4525 20.0828 19.1904 20.313C16.4454 22.7058 14.1594 24.009 11.8362 24C9.50635 23.9916 7.32115 22.6662 4.77655 20.3052C4.59437 20.1355 4.44913 19.93 4.34992 19.7017C4.25071 19.4733 4.19966 19.2269 4.19995 18.978C4.19908 18.5306 4.36328 18.0987 4.66109 17.7649C4.95891 17.4311 5.36941 17.2189 5.81395 17.169V17.1696Z" fill="#D2D1D4"/>
<path d="M18.069 18.3738H22.069V14.7662L18.4805 14.395L18.069 18.3738ZM5.94535 18.3624L5.5054 14.3866L5.49389 14.3879L5.48239 14.3892L5.94535 18.3624ZM5.39995 18.9786H9.39995V18.9671L9.39989 18.9556L5.39995 18.9786ZM5.59195 19.4256L2.85958 22.3469L2.86566 22.3526L2.87177 22.3582L5.59195 19.4256ZM11.8398 22.8L11.8255 26.7999H11.8256L11.8398 22.8ZM18.4014 19.4088L21.0292 22.4244L21.0451 22.4106L21.0608 22.3966L18.4014 19.4088ZM18.069 18.3744H14.069V21.9733L17.6479 22.3521L18.069 18.3744ZM5.81395 17.1696H1.81395V21.6368L6.25406 21.1453L5.81395 17.1696ZM18.1932 17.1804L18.6084 13.202L18.605 13.2016L18.1932 17.1804ZM19.1904 20.313L21.8187 23.3282L21.829 23.3192L19.1904 20.313ZM11.8362 24L11.8516 20L11.8506 20L11.8362 24ZM4.77655 20.3052L2.05025 23.2322L2.05589 23.2374L4.77655 20.3052ZM4.19995 18.978L8.19997 18.9827L8.19995 18.9701L4.19995 18.978ZM5.81395 17.169H9.81395V12.6945L5.36746 13.194L5.81395 17.169ZM18.4805 14.395C13.6553 13.8959 10.4074 13.8442 5.5054 14.3866L6.38531 22.3381C10.6466 21.8665 13.3182 21.9037 17.6574 22.3525L18.4805 14.395ZM5.48239 14.3892C4.35352 14.5208 3.31285 15.0641 2.55961 15.9151L8.55013 21.2173C7.99816 21.841 7.23556 22.2391 6.40832 22.3355L5.48239 14.3892ZM2.55961 15.9151C1.80637 16.7661 1.39349 17.8651 1.40002 19.0016L9.39989 18.9556C9.40468 19.7884 9.10211 20.5937 8.55013 21.2173L2.55961 15.9151ZM1.39995 18.9786C1.39995 20.2484 1.92378 21.4716 2.85958 22.3469L8.32433 16.5042C9.01893 17.1539 9.39995 18.0519 9.39995 18.9786H1.39995ZM2.87177 22.3582C5.5186 24.8133 8.38214 26.7877 11.8255 26.7999L11.854 18.8C11.593 18.799 10.6669 18.677 8.31214 16.4929L2.87177 22.3582ZM11.8256 26.7999C15.233 26.812 18.1939 24.8951 21.0292 22.4244L15.7735 16.3931C13.1968 18.6384 12.1641 18.8011 11.854 18.8L11.8256 26.7999ZM21.0608 22.3966C21.7256 21.8049 22.2043 21.0327 22.4385 20.174L14.7205 18.0688C14.8941 17.4321 15.249 16.8596 15.7419 16.4209L21.0608 22.3966ZM22.4385 20.174C22.6727 19.3153 22.6525 18.407 22.3802 17.5596L14.7637 20.0071C14.5618 19.3788 14.5468 18.7054 14.7205 18.0688L22.4385 20.174ZM22.3802 17.5596C22.1078 16.7121 21.5952 15.9621 20.9046 15.4006L15.8577 21.6078C15.3457 21.1915 14.9656 20.6354 14.7637 20.0071L22.3802 17.5596ZM20.9046 15.4006C20.214 14.8391 19.3752 14.4903 18.49 14.3966L17.6479 22.3521C16.9916 22.2827 16.3697 22.0241 15.8577 21.6078L20.9046 15.4006ZM22.069 18.3744V18.3738H14.069V18.3744H22.069ZM6.25406 21.1453C10.6111 20.663 13.3696 20.7025 17.7813 21.1591L18.605 13.2016C13.7071 12.6947 10.372 12.6406 5.37385 13.1939L6.25406 21.1453ZM17.7779 21.1588C17.3512 21.1142 16.9468 20.9462 16.6141 20.6754L21.665 14.4715C20.7913 13.7601 19.729 13.3189 18.6084 13.202L17.7779 21.1588ZM16.6141 20.6754C16.2815 20.4046 16.035 20.0426 15.9048 19.6338L23.5279 17.2072C23.1862 16.1335 22.5388 15.1828 21.665 14.4715L16.6141 20.6754ZM15.9048 19.6338C15.7747 19.2251 15.7666 18.7872 15.8815 18.3739L23.5893 20.5163C23.891 19.4308 23.8697 18.2808 23.5279 17.2072L15.9048 19.6338ZM15.8815 18.3739C15.9964 17.9606 16.2293 17.5897 16.5517 17.3067L21.829 23.3192C22.6758 22.5759 23.2875 21.6019 23.5893 20.5163L15.8815 18.3739ZM16.562 17.2977C13.9468 19.5774 12.6254 20.003 11.8516 20L11.8207 27.9999C15.6933 28.0149 18.9439 25.8341 21.8187 23.3282L16.562 17.2977ZM11.8506 20C11.1114 19.9973 9.89465 19.5974 7.49722 17.3729L2.05589 23.2374C4.74766 25.7349 7.90132 27.9858 11.8217 27.9999L11.8506 20ZM7.50286 17.3782C7.72311 17.5833 7.8987 17.8317 8.01865 18.1078L0.681193 21.2955C0.999557 22.0283 1.46562 22.6876 2.05025 23.2321L7.50286 17.3782ZM8.01865 18.1078C8.13859 18.3839 8.20031 18.6817 8.19995 18.9827L0.199957 18.9732C0.199008 19.7722 0.362833 20.5627 0.681193 21.2955L8.01865 18.1078ZM8.19995 18.9701C8.201 19.5077 8.00369 20.0268 7.64581 20.4279L1.67638 15.1019C0.722867 16.1706 0.197161 17.5535 0.199962 18.9858L8.19995 18.9701ZM7.64581 20.4279C7.28792 20.829 6.79464 21.084 6.26045 21.144L5.36746 13.194C3.94418 13.3538 2.62989 14.0332 1.67638 15.1019L7.64581 20.4279ZM1.81395 17.169V17.1696H9.81395V17.169H1.81395Z" fill="#D2D1D4" mask="url(#path-4-inside-2_77_976)"/>
<path d="M13.9799 7.62015L15.1829 6.41708L13.9799 7.62015C14.505 8.14525 14.8 8.85744 14.8 9.60004C14.8 10.3426 14.505 11.0548 13.9799 11.5799L15.2655 12.8656L13.9799 11.5799C13.4548 12.105 12.7426 12.4 12 12.4C11.2573 12.4 10.5452 12.105 10.0201 11.5799C9.49495 11.0548 9.19995 10.3426 9.19995 9.60004C9.19995 8.85744 9.49495 8.14525 10.0201 7.62015C10.5452 7.09505 11.2573 6.80005 12 6.80005C12.7426 6.80005 13.4548 7.09505 13.9799 7.62015Z" fill="#D2D1D4" stroke="#D2D1D4" stroke-width="4"/>
<mask id="path-7-inside-3_77_976" fill="white">
<path fill-rule="evenodd" clip-rule="evenodd" d="M12 13.2C12.9547 13.2 13.8704 12.8207 14.5455 12.1456C15.2207 11.4705 15.6 10.5548 15.6 9.60004C15.6 8.64526 15.2207 7.72959 14.5455 7.05446C13.8704 6.37933 12.9547 6.00005 12 6.00005C11.0452 6.00005 10.1295 6.37933 9.45437 7.05446C8.77924 7.72959 8.39995 8.64526 8.39995 9.60004C8.39995 10.5548 8.77924 11.4705 9.45437 12.1456C10.1295 12.8207 11.0452 13.2 12 13.2ZM12 14.4C13.273 14.4 14.4939 13.8943 15.3941 12.9941C16.2942 12.094 16.8 10.8731 16.8 9.60004C16.8 8.327 16.2942 7.10611 15.3941 6.20593C14.4939 5.30576 13.273 4.80005 12 4.80005C10.7269 4.80005 9.50601 5.30576 8.60584 6.20593C7.70566 7.10611 7.19995 8.327 7.19995 9.60004C7.19995 10.8731 7.70566 12.094 8.60584 12.9941C9.50601 13.8943 10.7269 14.4 12 14.4Z"/>
</mask>
<path fill-rule="evenodd" clip-rule="evenodd" d="M12 13.2C12.9547 13.2 13.8704 12.8207 14.5455 12.1456C15.2207 11.4705 15.6 10.5548 15.6 9.60004C15.6 8.64526 15.2207 7.72959 14.5455 7.05446C13.8704 6.37933 12.9547 6.00005 12 6.00005C11.0452 6.00005 10.1295 6.37933 9.45437 7.05446C8.77924 7.72959 8.39995 8.64526 8.39995 9.60004C8.39995 10.5548 8.77924 11.4705 9.45437 12.1456C10.1295 12.8207 11.0452 13.2 12 13.2ZM12 14.4C13.273 14.4 14.4939 13.8943 15.3941 12.9941C16.2942 12.094 16.8 10.8731 16.8 9.60004C16.8 8.327 16.2942 7.10611 15.3941 6.20593C14.4939 5.30576 13.273 4.80005 12 4.80005C10.7269 4.80005 9.50601 5.30576 8.60584 6.20593C7.70566 7.10611 7.19995 8.327 7.19995 9.60004C7.19995 10.8731 7.70566 12.094 8.60584 12.9941C9.50601 13.8943 10.7269 14.4 12 14.4Z" fill="#D2D1D4"/>
<path d="M16.8 9.60004H20.8H16.8ZM12 4.80005V0.800049V4.80005ZM7.19995 9.60004H3.19995H7.19995ZM12 17.2C14.0156 17.2 15.9487 16.3993 17.374 14.974L11.7171 9.31719C11.7921 9.24217 11.8939 9.20003 12 9.20003V17.2ZM17.374 14.974C18.7992 13.5488 19.6 11.6157 19.6 9.60004H11.6C11.6 9.49395 11.6421 9.39221 11.7171 9.31719L17.374 14.974ZM19.6 9.60004C19.6 7.58439 18.7992 5.65131 17.374 4.22603L11.7171 9.88289C11.6421 9.80787 11.6 9.70613 11.6 9.60004H19.6ZM17.374 4.22603C15.9487 2.80076 14.0156 2.00005 12 2.00005V10C11.8939 10 11.7921 9.95791 11.7171 9.88289L17.374 4.22603ZM12 2.00005C9.98431 2.00005 8.05122 2.80076 6.62594 4.22603L12.2828 9.88289C12.2078 9.95791 12.106 10 12 10V2.00005ZM6.62594 4.22603C5.20066 5.65131 4.39995 7.58439 4.39995 9.60004H12.4C12.4 9.70613 12.3578 9.80787 12.2828 9.88289L6.62594 4.22603ZM4.39995 9.60004C4.39995 11.6157 5.20066 13.5488 6.62594 14.974L12.2828 9.31719C12.3578 9.39221 12.4 9.49395 12.4 9.60004H4.39995ZM6.62594 14.974C8.05122 16.3993 9.98431 17.2 12 17.2V9.20003C12.106 9.20003 12.2078 9.24217 12.2828 9.31719L6.62594 14.974ZM12 18.4C14.3339 18.4 16.5722 17.4729 18.2225 15.8226L12.5656 10.1657C12.4156 10.3157 12.2121 10.4 12 10.4V18.4ZM18.2225 15.8226C19.8728 14.1723 20.8 11.9339 20.8 9.60004H12.8C12.8 9.81221 12.7157 10.0157 12.5656 10.1657L18.2225 15.8226ZM20.8 9.60004C20.8 7.26613 19.8728 5.02782 18.2225 3.3775L12.5656 9.03436C12.7157 9.18439 12.8 9.38787 12.8 9.60004H20.8ZM18.2225 3.3775C16.5722 1.72719 14.3339 0.800049 12 0.800049V8.80005C12.2121 8.80005 12.4156 8.88434 12.5656 9.03436L18.2225 3.3775ZM12 0.800049C9.66605 0.800049 7.42774 1.72719 5.77741 3.3775L11.4343 9.03436C11.5843 8.88434 11.7878 8.80005 12 8.80005V0.800049ZM5.77741 3.3775C4.12709 5.02782 3.19995 7.26613 3.19995 9.60004H11.2C11.2 9.38787 11.2842 9.18439 11.4343 9.03436L5.77741 3.3775ZM3.19995 9.60004C3.19995 11.9339 4.12709 14.1723 5.77741 15.8226L11.4343 10.1657C11.2842 10.0157 11.2 9.81221 11.2 9.60004H3.19995ZM5.77741 15.8226C7.42774 17.4729 9.66605 18.4 12 18.4V10.4C11.7878 10.4 11.5843 10.3157 11.4343 10.1657L5.77741 15.8226Z" fill="#D2D1D4" mask="url(#path-7-inside-3_77_976)"/>
</svg>
